<svg width="800" height="200" viewBox="0 0 800 200" xmlns="http://www.w3.org/2000/svg">
  <defs>
    <radialGradient id="dball" cx="35%" cy="30%">
      <stop offset="0%" stop-color="#ffffff" stop-opacity="0.95"/>
      <stop offset="45%" stop-color="#dce8f8"/>
      <stop offset="100%" stop-color="#9ab8d8"/>
    </radialGradient>
    <clipPath id="dclip"><circle cx="64" cy="90" r="28"/></clipPath>
  </defs>

  <!-- background -->
  <rect width="800" height="200" fill="#fde8f5"/>

  <!-- streamers -->
  <rect x="30" y="0" width="4" height="200" rx="2" fill="#f9a8d4" opacity="0.35"/>
  <rect x="75" y="0" width="4" height="200" rx="2" fill="#c4b5fd" opacity="0.35"/>
  <rect x="120" y="0" width="4" height="200" rx="2" fill="#fcd34d" opacity="0.35"/>
  <rect x="165" y="0" width="4" height="200" rx="2" fill="#6ee7b7" opacity="0.35"/>
  <rect x="210" y="0" width="4" height="200" rx="2" fill="#f9a8d4" opacity="0.35"/>
  <rect x="255" y="0" width="4" height="200" rx="2" fill="#c4b5fd" opacity="0.35"/>
  <rect x="300" y="0" width="4" height="200" rx="2" fill="#fcd34d" opacity="0.35"/>
  <rect x="345" y="0" width="4" height="200" rx="2" fill="#6ee7b7" opacity="0.35"/>
  <rect x="390" y="0" width="4" height="200" rx="2" fill="#f9a8d4" opacity="0.35"/>
  <rect x="435" y="0" width="4" height="200" rx="2" fill="#c4b5fd" opacity="0.35"/>
  <rect x="480" y="0" width="4" height="200" rx="2" fill="#fcd34d" opacity="0.35"/>
  <rect x="525" y="0" width="4" height="200" rx="2" fill="#6ee7b7" opacity="0.35"/>
  <rect x="570" y="0" width="4" height="200" rx="2" fill="#f9a8d4" opacity="0.35"/>
  <rect x="615" y="0" width="4" height="200" rx="2" fill="#c4b5fd" opacity="0.35"/>
  <rect x="660" y="0" width="4" height="200" rx="2" fill="#fcd34d" opacity="0.35"/>
  <rect x="705" y="0" width="4" height="200" rx="2" fill="#6ee7b7" opacity="0.35"/>
  <rect x="750" y="0" width="4" height="200" rx="2" fill="#f9a8d4" opacity="0.35"/>

  <!-- wavy garland top -->
  <path d="M0,18 Q25,42 50,18 Q75,42 100,18 Q125,42 150,18 Q175,42 200,18 Q225,42 250,18 Q275,42 300,18 Q325,42 350,18 Q375,42 400,18 Q425,42 450,18 Q475,42 500,18 Q525,42 550,18 Q575,42 600,18 Q625,42 650,18 Q675,42 700,18 Q725,42 750,18 Q775,42 800,18" fill="#fce4f0" stroke="#f0abcf" stroke-width="1.5"/>

  <!-- star garland -->
  <text x="26" y="16" font-size="14" text-anchor="middle" font-family="serif">⭐</text>
  <text x="76" y="22" font-size="12" text-anchor="middle" font-family="serif">✦</text>
  <text x="126" y="16" font-size="14" text-anchor="middle" font-family="serif">🌟</text>
  <text x="176" y="22" font-size="11" text-anchor="middle" font-family="serif">✧</text>
  <text x="226" y="16" font-size="14" text-anchor="middle" font-family="serif">⭐</text>
  <text x="276" y="22" font-size="12" text-anchor="middle" font-family="serif">✦</text>
  <text x="326" y="16" font-size="14" text-anchor="middle" font-family="serif">🌟</text>
  <text x="376" y="22" font-size="11" text-anchor="middle" font-family="serif">✧</text>
  <text x="426" y="16" font-size="14" text-anchor="middle" font-family="serif">⭐</text>
  <text x="476" y="22" font-size="12" text-anchor="middle" font-family="serif">✦</text>
  <text x="526" y="16" font-size="14" text-anchor="middle" font-family="serif">🌟</text>
  <text x="576" y="22" font-size="11" text-anchor="middle" font-family="serif">✧</text>
  <text x="626" y="16" font-size="14" text-anchor="middle" font-family="serif">⭐</text>
  <text x="676" y="22" font-size="12" text-anchor="middle" font-family="serif">✦</text>
  <text x="726" y="16" font-size="14" text-anchor="middle" font-family="serif">🌟</text>
  <text x="776" y="22" font-size="11" text-anchor="middle" font-family="serif">✧</text>

  <!-- disco ball -->
  <circle cx="64" cy="90" r="28" fill="url(#dball)" stroke="#c8d8ec" stroke-width="1"/>
  <g clip-path="url(#dclip)" opacity="0.55">
    <rect x="38" y="64" width="11" height="9" rx="1" fill="#e8f0fa"/>
    <rect x="51" y="64" width="11" height="9" rx="1" fill="#f0e8fa"/>
    <rect x="64" y="64" width="11" height="9" rx="1" fill="#fae8f4"/>
    <rect x="77" y="64" width="11" height="9" rx="1" fill="#faf0e8"/>
    <rect x="38" y="75" width="11" height="9" rx="1" fill="#faf0e8"/>
    <rect x="51" y="75" width="11" height="9" rx="1" fill="#e8f0fa"/>
    <rect x="64" y="75" width="11" height="9" rx="1" fill="#f0fae8"/>
    <rect x="77" y="75" width="11" height="9" rx="1" fill="#f0e8fa"/>
    <rect x="38" y="86" width="11" height="9" rx="1" fill="#f0e8fa"/>
    <rect x="51" y="86" width="11" height="9" rx="1" fill="#fae8f0"/>
    <rect x="64" y="86" width="11" height="9" rx="1" fill="#e8f0fa"/>
    <rect x="77" y="86" width="11" height="9" rx="1" fill="#faf0e8"/>
    <rect x="38" y="97" width="11" height="9" rx="1" fill="#faf0e8"/>
    <rect x="51" y="97" width="11" height="9" rx="1" fill="#f0fae8"/>
    <rect x="64" y="97" width="11" height="9" rx="1" fill="#f0e8fa"/>
    <rect x="77" y="97" width="11" height="9" rx="1" fill="#e8f0fa"/>
  </g>
  <circle cx="52" cy="76" r="5" fill="white" opacity="0.75"/>
  <circle cx="66" cy="70" r="3" fill="white" opacity="0.5"/>

  <!-- speech bubble -->
  <rect x="104" y="62" width="370" height="56" rx="20" fill="white" stroke="#e879a0" stroke-width="2.5"/>
  <polygon points="104,88 88,96 104,104" fill="white" stroke="#e879a0" stroke-width="2" stroke-linejoin="round"/>
  <polygon points="106,90 90,96 106,102" fill="white"/>
  <text x="289" y="86" font-size="18" text-anchor="middle" font-family="Georgia, serif" font-style="italic" fill="#be185d">it&#39;s me, hi, i&#39;m </text>
  <text x="289" y="108" font-size="20" text-anchor="middle" font-family="Georgia, serif" font-weight="bold" font-style="normal" fill="#7c3aed">sammy</text>

  <!-- fix bubble text layout -->
  <rect x="104" y="62" width="440" height="56" rx="20" fill="white" stroke="#e879a0" stroke-width="2.5"/>
  <polygon points="104,88 86,96 104,104" fill="white" stroke="#e879a0" stroke-width="2" stroke-linejoin="round"/>
  <polygon points="107,90 89,96 107,102" fill="white"/>
  <text x="325" y="98" font-size="19" text-anchor="middle" font-family="Georgia, serif" font-style="italic" fill="#be185d">it&#39;s me, hi, i&#39;m <tspan font-weight="bold" font-style="normal" fill="#7c3aed">sammy</tspan>, it&#39;s me</text>

  <!-- wavy bottom white -->
  <ellipse cx="400" cy="200" rx="500" ry="40" fill="white"/>
</svg>
